<svg width="29" height="21" viewBox="0 0 29 21" fill="none" xmlns="http://www.w3.org/2000/svg">
<path fill-rule="evenodd" clip-rule="evenodd" d="M1.29922 0.599609C1.00748 0.599609 0.727691 0.715502 0.521401 0.921792C0.315111 1.12808 0.199219 1.40787 0.199219 1.69961C0.199219 1.99135 0.315111 2.27114 0.521401 2.47743C0.727691 2.68372 1.00748 2.79961 1.29922 2.79961H27.6992C27.991 2.79961 28.2707 2.68372 28.477 2.47743C28.6833 2.27114 28.7992 1.99135 28.7992 1.69961C28.7992 1.40787 28.6833 1.12808 28.477 0.921792C28.2707 0.715502 27.991 0.599609 27.6992 0.599609H1.29922ZM0.199219 10.4996C0.199219 10.2079 0.315111 9.92808 0.521401 9.72179C0.727691 9.5155 1.00748 9.39961 1.29922 9.39961H27.6992C27.991 9.39961 28.2707 9.5155 28.477 9.72179C28.6833 9.92808 28.7992 10.2079 28.7992 10.4996C28.7992 10.7913 28.6833 11.0711 28.477 11.2774C28.2707 11.4837 27.991 11.5996 27.6992 11.5996H1.29922C1.00748 11.5996 0.727691 11.4837 0.521401 11.2774C0.315111 11.0711 0.199219 10.7913 0.199219 10.4996V10.4996ZM0.199219 19.2996C0.199219 19.0079 0.315111 18.7281 0.521401 18.5218C0.727691 18.3155 1.00748 18.1996 1.29922 18.1996H27.6992C27.991 18.1996 28.2707 18.3155 28.477 18.5218C28.6833 18.7281 28.7992 19.0079 28.7992 19.2996C28.7992 19.5913 28.6833 19.8711 28.477 20.0774C28.2707 20.2837 27.991 20.3996 27.6992 20.3996H1.29922C1.00748 20.3996 0.727691 20.2837 0.521401 20.0774C0.315111 19.8711 0.199219 19.5913 0.199219 19.2996V19.2996Z" fill="#63C3D1"/>
</svg>
