<svg width="294" height="294" viewBox="0 0 294 294" fill="none" xmlns="http://www.w3.org/2000/svg">
<circle cx="147" cy="147" r="147" fill="#FBFEF9"/>
<path d="M78.92 99.27H122.1C127.03 99.27 130.94 95.36 130.94 90.43C130.94 85.5 127.03 81.59 122.1 81.59H69.06C63.62 81.59 59.2 86.01 59.2 91.45V186.14C59.2 191.58 63.62 196 69.06 196H123.97C128.9 196 132.81 192.09 132.81 187.16C132.81 182.23 128.9 178.32 123.97 178.32H78.92V147.04H111.05C115.81 147.04 119.72 143.13 119.72 138.37C119.72 133.61 115.81 129.7 111.05 129.7H78.92V99.27ZM224.854 80.23C219.584 80.23 215.164 84.65 215.164 89.92V157.24L164.844 84.31C163.144 81.76 160.424 80.23 157.024 80.23C151.754 80.23 147.334 84.65 147.334 89.92V187.67C147.334 192.94 151.754 197.36 157.024 197.36C162.294 197.36 166.714 192.94 166.714 187.67V120.69L216.864 193.11C218.564 195.66 221.624 197.36 224.854 197.36C230.124 197.36 234.544 192.94 234.544 187.67V89.92C234.544 84.65 230.124 80.23 224.854 80.23Z" fill="#482683"/>
</svg>
