<svg width="294" height="294" viewBox="0 0 294 294" fill="none" xmlns="http://www.w3.org/2000/svg">
<circle cx="147" cy="147" r="147" fill="#63C3D1"/>
<path d="M107.52 53H186.48C216.56 53 241 77.44 241 107.52V186.48C241 200.94 235.256 214.807 225.031 225.031C214.807 235.256 200.94 241 186.48 241H107.52C77.44 241 53 216.56 53 186.48V107.52C53 93.0604 58.7441 79.193 68.9685 68.9685C79.193 58.7441 93.0604 53 107.52 53ZM105.64 71.8C96.6651 71.8 88.0577 75.3653 81.7115 81.7115C75.3653 88.0577 71.8 96.6651 71.8 105.64V188.36C71.8 207.066 86.934 222.2 105.64 222.2H188.36C197.335 222.2 205.942 218.635 212.288 212.288C218.635 205.942 222.2 197.335 222.2 188.36V105.64C222.2 86.934 207.066 71.8 188.36 71.8H105.64ZM196.35 85.9C199.466 85.9 202.455 87.1379 204.659 89.3415C206.862 91.545 208.1 94.5337 208.1 97.65C208.1 100.766 206.862 103.755 204.659 105.959C202.455 108.162 199.466 109.4 196.35 109.4C193.234 109.4 190.245 108.162 188.041 105.959C185.838 103.755 184.6 100.766 184.6 97.65C184.6 94.5337 185.838 91.545 188.041 89.3415C190.245 87.1379 193.234 85.9 196.35 85.9ZM147 100C159.465 100 171.42 104.952 180.234 113.766C189.048 122.58 194 134.535 194 147C194 159.465 189.048 171.42 180.234 180.234C171.42 189.048 159.465 194 147 194C134.535 194 122.58 189.048 113.766 180.234C104.952 171.42 100 159.465 100 147C100 134.535 104.952 122.58 113.766 113.766C122.58 104.952 134.535 100 147 100ZM147 118.8C139.521 118.8 132.348 121.771 127.06 127.06C121.771 132.348 118.8 139.521 118.8 147C118.8 154.479 121.771 161.652 127.06 166.94C132.348 172.229 139.521 175.2 147 175.2C154.479 175.2 161.652 172.229 166.94 166.94C172.229 161.652 175.2 154.479 175.2 147C175.2 139.521 172.229 132.348 166.94 127.06C161.652 121.771 154.479 118.8 147 118.8Z" fill="white"/>
</svg>
