<svg width="294" height="294" viewBox="0 0 294 294" fill="none" xmlns="http://www.w3.org/2000/svg">
<path fill-rule="evenodd" clip-rule="evenodd" d="M147 294C228.186 294 294 228.186 294 147C294 65.814 228.186 0 147 0C65.8145 0 0 65.814 0 147C0 228.186 65.8145 294 147 294ZM96.3008 216C109.723 216 120.602 205.12 120.602 191.699C120.602 178.278 109.723 167.397 96.3008 167.397C82.8809 167.397 72 178.277 72 191.699C72 205.12 82.8789 216 96.3008 216ZM78.3711 100.741C137.1 103.915 184.088 150.963 187.258 209.628C187.445 213.095 184.66 216 181.189 216H162.949C159.756 216 157.078 213.537 156.871 210.351C154.102 167.824 120.086 133.893 77.6484 131.129C74.4629 130.922 72 128.244 72 125.051V106.811C72 103.339 74.9043 100.554 78.3711 100.741ZM78.2617 46.0039C167.422 49.2046 238.811 121.011 241.996 209.738C242.119 213.164 239.352 216 235.922 216H217.684C214.41 216 211.746 213.407 211.611 210.137C208.637 137.603 150.41 79.3633 77.8633 76.3887C74.5938 76.2544 72 73.5908 72 70.3179V52.0776C72 48.6494 74.8359 45.8809 78.2617 46.0039Z" fill="#63C3D1"/>
</svg>
