<svg width="20" height="20" viewBox="0 0 50 50" fill="none" xmlns="http://www.w3.org/2000/svg">
<path d="M44.6563 39.285C43.4277 38.1082 42.2319 36.8977 41.0703 35.6547C40.0944 34.6632 39.5068 33.9419 39.5068 33.9419L32.1616 30.4349C35.1023 27.1001 36.7253 22.8071 36.7261 18.3611C36.7261 8.2389 28.489 0 18.3631 0C8.23715 0 0 8.2389 0 18.3611C0 28.4834 8.23715 36.7223 18.3631 36.7223C22.9879 36.7223 27.2036 34.9911 30.4381 32.1608L33.9454 39.5053C33.9454 39.5053 34.6668 40.0929 35.6584 41.0686C36.6737 42.0208 38.0089 43.3087 39.2891 44.6543L42.8515 48.3055L44.436 50L50 44.4366L48.3053 42.8523C47.3111 41.8765 45.9837 40.5807 44.6563 39.285V39.285ZM18.3631 31.4762C11.1306 31.4762 5.24659 25.5928 5.24659 18.3611C5.24659 11.1295 11.1306 5.24604 18.3631 5.24604C25.5955 5.24604 31.4795 11.1295 31.4795 18.3611C31.4795 25.5928 25.5955 31.4762 18.3631 31.4762Z" fill="#3A3A3A" fill-opacity="0.9"/>
</svg>
