<svg width="294" height="294" viewBox="0 0 294 294" fill="none" xmlns="http://www.w3.org/2000/svg">
<circle cx="147" cy="147" r="147" fill="#63C3D1"/>
<path d="M233 94.749C226.638 97.5023 219.715 99.4838 212.583 100.256C219.987 95.8427 225.532 88.8713 228.177 80.649C221.229 84.7954 213.618 87.7029 205.681 89.2425C202.364 85.6847 198.352 82.8504 193.895 80.9162C189.438 78.982 184.632 77.9893 179.776 78.0001C160.128 78.0001 144.327 93.9773 144.327 113.584C144.327 116.337 144.66 119.09 145.201 121.739C115.782 120.196 89.5437 106.096 72.1002 84.5078C68.9218 89.9541 67.2563 96.1554 67.2768 102.466C67.2768 114.814 73.5348 125.702 83.0778 132.106C77.4539 131.883 71.9618 130.333 67.0481 127.579V128.018C67.0481 145.309 79.2315 159.638 95.4691 162.934C92.4203 163.728 89.2839 164.135 86.134 164.144C83.8262 164.144 81.6432 163.914 79.4394 163.601C83.9302 177.701 97.0076 187.942 112.58 188.276C100.396 197.85 85.136 203.482 68.5658 203.482C65.5927 203.482 62.8483 203.377 60 203.044C75.7178 213.16 94.3671 219 114.451 219C179.651 219 215.328 164.811 215.328 117.776C215.328 116.233 215.328 114.689 215.224 113.146C222.126 108.077 228.177 101.799 233 94.749Z" fill="white"/>
</svg>
