<svg width="294" height="294" viewBox="0 0 294 294" fill="none" xmlns="http://www.w3.org/2000/svg">
<circle cx="147" cy="147" r="147" fill="#63C3D1"/>
<path fill-rule="evenodd" clip-rule="evenodd" d="M127.812 171.93V121.188L176.709 146.649L127.812 171.93ZM235.19 112.403C235.19 112.403 233.425 99.9518 227.995 94.4713C221.117 87.2843 213.398 87.2482 209.859 86.8238C184.537 85 146.536 85 146.536 85H146.464C146.464 85 108.472 85 83.141 86.8238C79.6024 87.2482 71.8918 87.2753 65.0047 94.4713C59.5747 99.9518 57.81 112.403 57.81 112.403C57.81 112.403 56 127.011 56 141.629V155.326C56 169.935 57.81 184.552 57.81 184.552C57.81 184.552 59.5747 196.994 65.0047 202.475C71.8827 209.671 80.9327 209.436 84.96 210.194C99.44 211.576 146.5 212 146.5 212C146.5 212 184.537 211.946 209.859 210.122C213.398 209.698 221.117 209.671 227.995 202.475C233.425 196.994 235.19 184.552 235.19 184.552C235.19 184.552 237 169.935 237 155.326V141.629C237 127.011 235.19 112.403 235.19 112.403Z" fill="white"/>
</svg>
